<mxfile host="app.diagrams.net" modified="2020-12-13T21:34:25.177Z" agent="5.0 (Windows NT 10.0; Win64; x64) AppleWebKit/537.36 (KHTML, like Gecko) Chrome/87.0.4280.88 Safari/537.36" etag="4phzfMPTD4YcSFSHUZkB" version="13.10.9" type="github">
  <diagram id="5ZeVWIw-weSmzN-z1i84" name="Page-1">
    <mxGraphModel dx="1038" dy="491" grid="1" gridSize="10" guides="1" tooltips="1" connect="1" arrows="1" fold="1" page="1" pageScale="1" pageWidth="827" pageHeight="1169" math="0" shadow="0">
      <root>
        <mxCell id="0" />
        <mxCell id="1" parent="0" />
        <mxCell id="wiz_B08I5-aSRYVlq80o-6" value="" style="edgeStyle=orthogonalEdgeStyle;rounded=0;orthogonalLoop=1;jettySize=auto;html=1;entryX=0.018;entryY=0.646;entryDx=0;entryDy=0;entryPerimeter=0;" parent="1" source="wiz_B08I5-aSRYVlq80o-1" target="wiz_B08I5-aSRYVlq80o-2" edge="1">
          <mxGeometry relative="1" as="geometry">
            <Array as="points">
              <mxPoint x="150" y="240" />
              <mxPoint x="272" y="240" />
            </Array>
          </mxGeometry>
        </mxCell>
        <mxCell id="wiz_B08I5-aSRYVlq80o-1" value="q0" style="ellipse;whiteSpace=wrap;html=1;" parent="1" vertex="1">
          <mxGeometry x="90" y="280" width="120" height="80" as="geometry" />
        </mxCell>
        <mxCell id="wiz_B08I5-aSRYVlq80o-10" value="" style="edgeStyle=orthogonalEdgeStyle;rounded=0;orthogonalLoop=1;jettySize=auto;html=1;" parent="1" source="wiz_B08I5-aSRYVlq80o-2" target="wiz_B08I5-aSRYVlq80o-3" edge="1">
          <mxGeometry relative="1" as="geometry" />
        </mxCell>
        <mxCell id="wiz_B08I5-aSRYVlq80o-11" value="a, b, c" style="edgeLabel;html=1;align=center;verticalAlign=middle;resizable=0;points=[];" parent="wiz_B08I5-aSRYVlq80o-10" vertex="1" connectable="0">
          <mxGeometry x="-0.2857" relative="1" as="geometry">
            <mxPoint as="offset" />
          </mxGeometry>
        </mxCell>
        <mxCell id="wiz_B08I5-aSRYVlq80o-2" value="q1" style="ellipse;whiteSpace=wrap;html=1;" parent="1" vertex="1">
          <mxGeometry x="270" y="160" width="120" height="80" as="geometry" />
        </mxCell>
        <mxCell id="wiz_B08I5-aSRYVlq80o-12" value="" style="edgeStyle=orthogonalEdgeStyle;rounded=0;orthogonalLoop=1;jettySize=auto;html=1;" parent="1" source="wiz_B08I5-aSRYVlq80o-3" target="wiz_B08I5-aSRYVlq80o-2" edge="1">
          <mxGeometry relative="1" as="geometry" />
        </mxCell>
        <mxCell id="wiz_B08I5-aSRYVlq80o-3" value="q2" style="ellipse;whiteSpace=wrap;html=1;fillColor=#d5e8d4;strokeColor=#82b366;" parent="1" vertex="1">
          <mxGeometry x="270" y="300" width="120" height="80" as="geometry" />
        </mxCell>
        <mxCell id="wiz_B08I5-aSRYVlq80o-7" value="1, 2, 3" style="text;html=1;align=center;verticalAlign=middle;resizable=0;points=[];autosize=1;" parent="1" vertex="1">
          <mxGeometry x="175" y="230" width="50" height="20" as="geometry" />
        </mxCell>
      </root>
    </mxGraphModel>
  </diagram>
</mxfile>
